<svg xmlns="http://www.w3.org/2000/svg" viewBox="0 0 32 32" fill="none">
  <!-- Purple gradient background -->
  <rect width="32" height="32" rx="8" fill="url(#grad)"/>

  <!-- Exact Lucide brain-circuit paths, scaled from 24x24 to fit in 32x32 with padding -->
  <!-- Scale: 20/24 = 0.833, then translate by 6 to center -->
  <g transform="translate(5.33, 5.33) scale(0.9167)" stroke="white" stroke-width="1.8" stroke-linecap="round" stroke-linejoin="round" fill="none">
    <path d="M12 5a3 3 0 1 0-5.997.125 4 4 0 0 0-2.526 5.77 4 4 0 0 0 .556 6.588A4 4 0 1 0 12 18Z"/>
    <path d="M9 13a4.5 4.5 0 0 0 3-4"/>
    <path d="M6.003 5.125A3 3 0 0 0 6.401 6.5"/>
    <path d="M3.477 10.896a4 4 0 0 1 .585-.396"/>
    <path d="M6 18a4 4 0 0 1-1.967-.516"/>
    <path d="M12 13h4"/>
    <path d="M12 18h6a2 2 0 0 1 2 2v1"/>
    <path d="M12 8h8"/>
    <path d="M16 8V5a2 2 0 0 1 2-2"/>
    <circle cx="16" cy="13" r="1" fill="white" stroke="none"/>
    <circle cx="18" cy="3" r="1" fill="white" stroke="none"/>
    <circle cx="20" cy="21" r="1" fill="white" stroke="none"/>
    <circle cx="20" cy="8" r="1" fill="white" stroke="none"/>
  </g>

  <defs>
    <linearGradient id="grad" x1="0" y1="0" x2="32" y2="32" gradientUnits="userSpaceOnUse">
      <stop offset="0%" stop-color="#7C3AED"/>
      <stop offset="100%" stop-color="#4F46E5"/>
    </linearGradient>
  </defs>
</svg>